<svg xmlns="http://www.w3.org/2000/svg" width="108.252" height="99.665" viewBox="0 0 108.252 99.665">
  <path id="Path_4" data-name="Path 4" d="M12.3,116.762q15.556-11.053,22.515-22.924t7.778-29.474a17.068,17.068,0,0,1-3.221.409H36.958q-8.456,0-13.691-4.708T18.031,47.171a20.938,20.938,0,0,1,2.232-9.415,30.5,30.5,0,0,1,5.68-7.982,26,26,0,0,1,8.114-5.526A23.516,23.516,0,0,1,43.59,22.2a18.375,18.375,0,0,1,13.79,5.936,20.749,20.749,0,0,1,5.68,14.942,65.054,65.054,0,0,1-3.684,20.468,104.324,104.324,0,0,1-10.234,21.7Q45.458,90.972,41.16,96.7a66.844,66.844,0,0,1-10.029,10.643,39.549,39.549,0,0,1-7.983,6.345q-3.889,2.252-10.848,6.754Zm56.9,0Q84.757,105.3,91.511,93.633t7.573-29.269a17.608,17.608,0,0,1-3.275.409H93.353q-8.6,0-13.714-4.708T74.523,47.171a20.792,20.792,0,0,1,2.251-9.415,30.48,30.48,0,0,1,5.731-7.982,26.99,26.99,0,0,1,7.983-5.526A22.5,22.5,0,0,1,99.9,22.2a18.624,18.624,0,0,1,13.918,5.936,20.646,20.646,0,0,1,5.731,14.942,65.91,65.91,0,0,1-3.684,20.263,102.645,102.645,0,0,1-10.234,21.9,87.9,87.9,0,0,1-14.942,19.035A135.25,135.25,0,0,1,69.2,120.446Z" transform="translate(120.052 121.365) rotate(180)" fill="none" stroke="#c39145" stroke-width="1"/>
</svg>
